<?xml version="1.0" standalone="no"?>
<!DOCTYPE svg PUBLIC "-//W3C//DTD SVG 20010904//EN"
 "http://www.w3.org/TR/2001/REC-SVG-20010904/DTD/svg10.dtd">
<svg version="1.0" xmlns="http://www.w3.org/2000/svg"
 width="520.000000pt" height="520.000000pt" viewBox="0 0 520.000000 520.000000"
 preserveAspectRatio="xMidYMid meet">
<metadata>
Created by potrace 1.11, written by Peter Selinger 2001-2013
</metadata>
<g transform="translate(0.000000,520.000000) scale(0.100000,-0.100000)"
fill="#000000" stroke="none">
<path d="M3632 4264 c-18 -8 -72 -25 -120 -39 -48 -14 -93 -27 -99 -30 -9 -3
-4 -19 17 -52 l30 -47 0 -423 0 -424 -25 -23 c-14 -13 -25 -26 -25 -30 0 -3
70 -6 155 -6 100 0 155 4 155 10 0 6 -8 14 -17 17 -10 4 -21 11 -25 17 -4 6
-8 73 -8 149 0 106 3 138 13 135 11 -4 167 -273 167 -290 0 -4 -9 -10 -20 -13
-54 -17 -7 -25 150 -25 104 0 170 4 170 10 0 5 -13 16 -29 24 -31 17 -46 38
-176 260 l-87 149 88 89 c51 52 107 99 132 110 23 10 42 21 42 23 0 3 -54 5
-121 5 -113 0 -147 -10 -79 -23 18 -4 30 -13 30 -22 0 -22 -215 -248 -251
-263 l-30 -13 3 371 c2 203 1 370 -2 369 -3 0 -20 -7 -38 -15z"/>
<path d="M1133 4178 c-112 -12 -211 -72 -261 -156 -24 -42 -27 -57 -27 -137 0
-80 3 -95 27 -137 37 -62 88 -100 227 -171 172 -87 215 -138 191 -228 -23 -83
-103 -128 -204 -114 -109 14 -201 91 -251 210 -30 71 -46 84 -40 33 3 -18 7
-72 11 -120 l6 -86 57 -31 c145 -77 341 -83 476 -14 56 29 114 88 139 142 29
65 29 180 -1 237 -32 60 -110 126 -215 179 -195 99 -235 138 -225 221 9 84 61
127 154 126 103 -1 181 -60 235 -179 15 -35 31 -63 34 -63 6 0 -5 174 -12 202
-3 10 -33 31 -67 48 -72 35 -162 49 -254 38z"/>
<path d="M1765 3958 c-33 -28 -95 -76 -138 -106 -83 -58 -82 -54 -36 -107 16
-18 18 -48 21 -247 l3 -227 30 -32 c41 -43 83 -59 158 -59 48 0 76 6 115 26
68 34 177 156 115 128 -10 -4 -49 -9 -88 -12 -61 -3 -74 -1 -98 18 l-27 22 2
205 3 206 87 -2 88 -2 20 33 c34 56 31 58 -91 58 l-111 0 7 75 c4 41 6 75 4
75 -2 -1 -31 -24 -64 -52z"/>
<path d="M3103 3870 c-117 -25 -230 -115 -278 -222 -32 -72 -39 -181 -17 -259
20 -66 78 -137 142 -173 51 -29 62 -31 150 -31 108 0 133 9 207 78 37 34 83
101 83 121 0 3 -21 -9 -46 -27 -41 -28 -53 -32 -112 -32 -135 1 -216 88 -229
243 -10 121 45 241 117 257 41 9 64 -7 89 -64 34 -81 85 -102 137 -58 33 29
37 76 8 108 -44 50 -163 78 -251 59z"/>
<path d="M2255 3854 c-27 -7 -85 -19 -127 -25 -43 -7 -78 -16 -78 -21 0 -4 5
-8 10 -8 6 0 19 -9 30 -20 19 -19 20 -33 20 -242 0 -195 3 -228 19 -263 29
-63 62 -88 125 -93 46 -4 65 1 125 28 39 18 76 39 82 46 22 26 32 15 27 -31
-3 -25 -3 -45 0 -45 23 0 262 66 262 72 0 4 -7 8 -15 8 -33 0 -37 49 -32 333
2 152 2 277 -2 277 -3 0 -40 -9 -81 -20 -41 -11 -101 -22 -132 -26 -32 -4 -58
-9 -58 -13 0 -3 14 -14 30 -23 l30 -17 0 -241 0 -240 -39 0 c-57 0 -88 15
-108 52 -16 29 -18 61 -18 281 1 165 -3 247 -10 246 -5 0 -32 -7 -60 -15z"/>
<path d="M2687 3048 c-52 -14 -100 -63 -122 -123 -10 -27 -25 -56 -33 -62 -14
-11 -14 -15 1 -31 14 -15 17 -41 17 -139 0 -88 -3 -123 -12 -126 -7 -3 25 -5
72 -6 60 0 79 3 63 9 -22 9 -23 14 -23 135 l0 125 34 0 c22 0 36 6 40 16 9 24
9 24 -35 24 l-42 0 6 61 c8 96 55 128 99 69 29 -40 71 -39 76 2 2 18 -3 30
-15 36 -31 17 -86 21 -126 10z"/>
<path d="M40 2936 c0 -9 16 -16 44 -20 93 -14 79 11 386 -718 121 -287 224
-526 229 -531 7 -7 14 0 21 19 38 98 314 770 319 776 4 4 71 -164 150 -375 79
-210 150 -393 156 -406 12 -24 13 -24 23 -5 6 11 101 254 212 540 111 285 218
550 238 588 40 76 72 102 139 112 27 4 43 11 43 20 0 12 -41 14 -230 14 -184
0 -230 -3 -230 -13 0 -9 25 -17 72 -25 89 -13 113 -35 105 -95 -8 -58 -231
-697 -239 -684 -24 43 -222 642 -226 683 -4 45 -2 53 22 71 14 11 48 23 76 27
34 5 50 11 50 21 0 13 -44 15 -310 15 -258 0 -310 -2 -310 -14 0 -8 15 -17 33
-20 58 -11 82 -47 151 -230 l43 -113 -79 -204 c-43 -112 -83 -215 -89 -229
-10 -23 -24 8 -144 310 -73 185 -136 352 -140 372 -10 51 24 84 94 94 33 4 51
11 51 20 0 12 -57 14 -330 14 -275 0 -330 -2 -330 -14z"/>
<path d="M2845 2871 c-67 -16 -107 -56 -125 -122 -32 -119 89 -224 217 -190
51 14 108 74 117 124 22 116 -91 216 -209 188z m69 -27 c23 -23 31 -59 31
-144 0 -88 -19 -130 -60 -130 -31 0 -51 36 -60 110 -7 56 7 144 27 167 14 18
43 16 62 -3z"/>
<path d="M3140 2853 c-35 -14 -53 -27 -50 -35 3 -7 6 -64 8 -127 2 -86 0 -116
-10 -122 -7 -5 23 -8 72 -8 61 0 79 3 63 9 -22 9 -23 15 -23 120 0 110 0 110
24 110 14 0 28 -4 31 -10 19 -32 82 12 70 49 -15 47 -58 47 -100 1 l-20 -22
-5 29 -5 28 -55 -22z"/>
<path d="M3670 2760 c-9 -4 -62 -22 -120 -39 -57 -17 -105 -33 -107 -35 -2 -2
7 -21 22 -41 24 -36 25 -45 25 -166 l0 -128 -31 11 c-56 19 -171 5 -243 -31
-135 -66 -208 -186 -209 -341 0 -108 33 -190 101 -251 41 -36 119 -69 162 -69
37 0 121 32 169 64 l51 35 0 -48 0 -47 127 32 c125 31 154 46 113 57 -20 5
-20 10 -20 506 0 522 1 515 -40 491z m-231 -456 c45 -32 51 -67 51 -299 l0
-215 -53 0 c-73 0 -132 38 -172 111 -29 52 -30 59 -30 174 0 106 3 126 23 168
13 26 36 54 50 62 36 19 102 19 131 -1z"/>
<path d="M2680 2354 c-30 -14 -88 -37 -128 -51 l-72 -26 25 -43 25 -43 -2
-233 c-3 -231 -3 -233 -25 -243 -13 -5 -23 -13 -23 -17 0 -5 79 -8 175 -8 96
0 175 4 175 9 0 11 -25 21 -51 21 -33 0 -39 42 -39 264 l0 214 31 13 c28 11
36 10 63 -6 91 -54 118 -54 161 -3 56 66 13 168 -71 168 -48 0 -90 -27 -138
-89 -21 -28 -40 -51 -43 -51 -3 0 -2 34 2 75 4 41 3 75 -2 74 -4 0 -33 -11
-63 -25z"/>
<path d="M1953 2356 c-175 -57 -281 -221 -253 -391 24 -148 141 -257 310 -287
154 -27 329 61 397 201 24 49 28 68 28 146 0 78 -4 97 -28 146 -34 69 -100
132 -175 167 -69 32 -210 41 -279 18z m175 -45 c51 -52 67 -124 67 -306 0
-142 -2 -165 -21 -206 -29 -63 -60 -89 -104 -89 -89 0 -135 112 -135 330 1 88
6 141 18 181 34 113 112 153 175 90z"/>
<path d="M3980 2361 c-104 -32 -170 -114 -170 -211 0 -97 40 -147 177 -218 99
-51 127 -82 119 -132 -21 -135 -245 -90 -298 60 -17 50 -24 34 -20 -47 4 -90
9 -95 92 -120 86 -26 194 -23 260 8 127 60 180 176 131 285 -23 51 -66 86
-181 149 -98 53 -126 84 -114 130 9 35 50 65 91 65 66 0 129 -43 166 -115 l16
-30 1 61 c0 72 -11 88 -69 109 -45 16 -158 19 -201 6z"/>
<path d="M4442 1954 c-97 -50 -109 -200 -20 -254 52 -31 90 -35 142 -12 77 34
106 114 72 196 -29 69 -126 104 -194 70z"/>
</g>
</svg>
