<?xml version="1.0" standalone="no"?>
<!DOCTYPE svg PUBLIC "-//W3C//DTD SVG 20010904//EN"
 "http://www.w3.org/TR/2001/REC-SVG-20010904/DTD/svg10.dtd">
<svg version="1.0" xmlns="http://www.w3.org/2000/svg"
 width="260.000000pt" height="260.000000pt" viewBox="0 0 260.000000 260.000000"
 preserveAspectRatio="xMidYMid meet">
<metadata>
Created by potrace 1.11, written by Peter Selinger 2001-2013
</metadata>
<g transform="translate(0.000000,260.000000) scale(0.100000,-0.100000)"
fill="#000000" stroke="none">
<path d="M1311 1996 c-14 -16 -131 -387 -131 -414 0 -26 23 -44 61 -45 29 -2
35 4 84 82 107 172 181 231 288 231 45 0 60 -4 77 -22 20 -21 20 -32 20 -560
l0 -538 -22 -13 c-13 -8 -45 -20 -73 -27 -27 -7 -58 -20 -67 -28 -21 -17 -24
-72 -6 -90 17 -17 509 -17 526 0 18 18 15 73 -5 90 -10 8 -40 21 -68 27 -27 7
-60 19 -72 27 l-23 14 0 540 c0 527 0 540 20 560 15 15 33 20 75 20 108 0 184
-60 290 -231 49 -79 55 -84 85 -82 51 2 66 23 53 75 -11 44 -68 232 -100 328
-24 72 -52 84 -118 52 -44 -21 -55 -22 -401 -22 -335 0 -357 1 -394 20 -46 23
-83 26 -99 6z"/>
<path d="M282 1968 c-16 -16 -15 -83 1 -95 6 -5 33 -17 60 -27 82 -30 77 4 77
-573 l0 -512 -22 -25 c-13 -14 -45 -34 -73 -44 l-50 -18 0 -49 0 -50 410 -5
c366 -4 413 -7 442 -22 46 -26 89 -23 108 6 9 13 43 101 75 195 65 187 66 200
10 220 -41 14 -54 7 -90 -49 -49 -76 -150 -165 -215 -189 -107 -40 -295 -54
-360 -26 -21 8 -39 25 -45 40 -6 16 -10 222 -10 533 0 573 -5 539 80 567 74
25 103 81 62 118 -16 15 -48 17 -233 17 -154 0 -218 -3 -227 -12z"/>
</g>
</svg>
